<?xml version="1.0" encoding="utf-8"?>
<!-- Generator: Adobe Illustrator 24.1.2, SVG Export Plug-In . SVG Version: 6.00 Build 0)  -->
<svg version="1.1" id="Capa_1" xmlns="http://www.w3.org/2000/svg" xmlns:xlink="http://www.w3.org/1999/xlink" x="0px" y="0px"
	 viewBox="0 0 136.7 136.7" style="enable-background:new 0 0 136.7 136.7;" xml:space="preserve">
<style type="text/css">
	.st0{fill:#FFFFFF;stroke:#FFFFFF;stroke-width:4;stroke-miterlimit:10;}
	.st1{fill:#009245;}
	.st2{fill:#019CDE;}
	.st3{fill:#C19B21;}
	.st4{fill:#FFFFFF;stroke:#009245;stroke-miterlimit:10;}
	.st5{fill:none;stroke:#009245;stroke-miterlimit:10;}
</style>
<g id="Capa_2_1_">
	<g id="OBJECTS">
		<g id="logo">
			<circle class="st0" cx="68.4" cy="68.4" r="66.4"/>
			<path class="st1" d="M18.2,63.3c-0.1-0.9-0.1-1.8,0.1-2.7c0.8-3.8,3.5-5,6.3-4.4c3.6,0.8,4.9,3.8,4.3,6.8c-0.2,0.9-0.5,1.7-1,2.5
				l-2-1c0.4-0.5,0.6-1.2,0.8-1.8c0.4-1.5-0.4-3.1-1.9-3.5c-0.2,0-0.3-0.1-0.5-0.1c-1.5-0.5-3.1,0.4-3.5,1.9
				c-0.1,0.2-0.1,0.3-0.1,0.5c-0.1,0.6-0.2,1.3-0.1,1.9L18.2,63.3z"/>
			<path class="st1" d="M23.2,75.4c-3.4,0.1-5.5-1.9-5.6-5.1s2.3-5.1,5.2-5.1c3-0.1,5.5,1.9,5.6,5.1C28.4,73.6,26,75.4,23.2,75.4z
				 M22.9,68.1c-2,0.1-3.1,0.9-3.1,2.3s1.4,2.1,3.2,2.1s3.1-0.9,3.1-2.2S24.8,68.1,22.9,68.1z"/>
			<path class="st1" d="M21.2,78c-0.2,0.9-0.2,1.9,0,2.8c0.2,0.9,0.7,1.3,1.2,1.2s0.6-0.7,0.8-1.9c0.2-1.9,0.8-3.3,2.3-3.6
				c1.8-0.5,3.6,0.7,4.2,3.3c0.3,0.9,0.3,1.9,0.2,2.9h-2.3c0.1-0.8,0.1-1.6-0.1-2.3c-0.2-0.8-0.6-1.2-1.1-1.1s-0.6,0.7-0.7,2.1
				c-0.2,2-1,3.1-2.4,3.4c-1.8,0.4-3.6-0.5-4.4-3.5c-0.3-1-0.3-2.1-0.2-3.1L21.2,78z"/>
			<path class="st1" d="M28.8,94.5c1-0.6,2.2-1.3,3.6-2.1l0,0c-1.4,0.4-3,0.8-4.1,1l-3.7,0.9l-1.1-1.9l2.7-2.6
				c0.9-0.8,2-1.8,3.2-2.7l0,0L25.7,89l-3.3,1.7l-1.3-2.3l9.4-4.6l1.8,3.3l-2.1,2c-0.9,0.8-1.9,1.8-2.9,2.6l0,0
				c1.3-0.4,2.7-0.8,3.8-1.1L34,90l1.8,3.2L27,98.8l-1.3-2.4L28.8,94.5z"/>
			<path class="st1" d="M40.1,104.7c-2.3,2.4-5.3,2.5-7.6,0.3s-1.9-5.3,0.1-7.3s5.2-2.5,7.5-0.3S42.1,102.7,40.1,104.7z M34.8,99.7
				c-1.4,1.4-1.6,2.9-0.6,3.8s2.5,0.6,3.8-0.8s1.6-2.8,0.7-3.8S36.1,98.3,34.8,99.7L34.8,99.7z"/>
			<path class="st1" d="M39,110.4l5.1-9.1l2.9,1.6l-0.1,3.6c0,1.3-0.2,2.7-0.4,4l0,0c0.6-1.3,1.3-2.7,2-3.9l1.2-2.2l2.3,1.3
				l-5.1,9.1l-2.6-1.5l0.2-3.9c0-1.3,0.1-2.8,0.3-4.2h0c-0.6,1.3-1.4,2.7-2.2,4.1l-1.3,2.2L39,110.4z"/>
			<path class="st1" d="M55.6,107.1c1.1,0.1,2.3,0.2,3.4,0.5c1.2,0.1,2.4,0.7,3.3,1.5c0.6,0.7,0.8,1.6,0.5,2.4
				c-0.3,1.1-1.2,1.9-2.3,2.1v0.1c0.6,0.5,1,1.3,0.9,2.1c0.1,1.1,0.1,2.7,0.2,3.1l-2.8-0.6c-0.2-0.8-0.2-1.7-0.2-2.5
				c0-1.3-0.3-1.6-1.2-1.8l-0.4-0.1l-0.8,3.8l-2.7-0.6L55.6,107.1z M57.5,112l0.7,0.1c1,0.2,1.7-0.2,1.9-0.9s-0.3-1.3-1.2-1.5
				c-0.3-0.1-0.6-0.1-0.9-0.1L57.5,112z"/>
			<path class="st1" d="M63.9,117.4c0.1-0.9,0.8-1.6,1.7-1.5c0.9,0.1,1.6,0.8,1.5,1.7c-0.1,0.9-0.8,1.5-1.7,1.5
				c-0.9,0-1.5-0.7-1.5-1.6C63.9,117.5,63.9,117.5,63.9,117.4z"/>
			<path class="st1" d="M68.3,108.7l2.8-0.3l0.8,8.1l4-0.4l0.2,2.3l-6.8,0.7L68.3,108.7z"/>
			<path class="st1" d="M77.9,116.4c-0.2-0.9,0.4-1.7,1.2-1.9c0.9-0.2,1.7,0.4,1.9,1.2c0.2,0.8-0.3,1.7-1.1,1.9
				c-0.8,0.3-1.7-0.2-2-1C77.9,116.5,77.9,116.5,77.9,116.4z"/>
			<path class="st2" d="M109.5,91.3c0,6.5-5,11.8-11.1,11.8s-11.1-5.3-11.1-11.8c0-12.4,11.1-24.5,11.1-24.5S109.5,78.9,109.5,91.3z
				"/>
			<path class="st3" d="M99.9,56.5l-0.7,0.1l1.7,8.9c0.1,0.8-0.4,1.6-1.2,1.7L96.1,68c-0.8,0.2-1.6-0.4-1.7-1.2l-1.7-8.9l-1.4,0.3
				c-1.4,0.3-2.7-0.6-3-2l-0.7-3.4c-0.1-0.3,0.2-0.7,0.5-0.8l2.2-0.4c-1.1-2-3-3.4-5.3-3.8l0,0c-0.4,0-0.8,0-1.2,0.1
				c-1.7,0.4-3.3,1-5.2,1.4c-1.5,0.4-3.1,0.6-4.6,0.7c0,0-9.8-0.7-15.1-0.5c-2.8,0-5.7,0.4-8.5,0.9c-0.4,0-0.7,0.1-1,0.3l-1.3,0.7
				c-0.4,0.1-0.8-0.2-0.8-0.5v-0.3L40.5,50V36.5l6.8-0.6v-0.3c0-0.3,0.4-0.6,0.8-0.5c1,0.6,2.1,0.9,3.2,1c2.6,0.5,5.2,0.8,7.8,0.9
				c2.4,0,7.7-0.5,7.7-0.5l2.4-0.3v-5.3c0-0.6,0.5-1.1,1.1-1.1h0.1v-2.1h0.8v-1.5h1.9v-8c-2.5,0.4-4,1.2-6.1,1.2
				c-1.6,0.1-3.1-1.1-3.2-2.8c0.1-1.7,1.5-2.9,3.2-2.8c2.1,0,4.6,1.2,8,1.2s5.7-1.2,7.8-1.2s3.2,1.2,3.2,2.8
				c-0.1,1.6-1.5,2.8-3.1,2.8c-2.5,0-3.7-0.8-6.1-1.1v7.9h1.9v1.5h0.8v2.1h0.1c0.6,0,1.1,0.5,1.1,1.1c0,0,0,0,0,0v3.7
				c0,0.6,0.2,1.1,0.5,1.5c0.7,0.9,3,1.1,4,1.5c0.5,0.2,1,0.4,1.5,0.7l0,0c6.8,3.4,9.7,6.8,11.3,11.9l2.4-0.5
				c0.3-0.1,0.7,0.1,0.7,0.5c0,0,0,0,0,0l0.7,3.3C102.2,54.8,101.4,56.2,99.9,56.5C100,56.5,99.9,56.5,99.9,56.5z"/>
			<circle class="st4" cx="98.4" cy="91.8" r="8.7"/>
			<line class="st5" x1="102.3" y1="90" x2="102.3" y2="99.7"/>
			<polygon class="st1" points="102.3,86.4 104,90.2 105.7,93.9 102.3,93.9 98.8,93.9 100.5,90.2 			"/>
			<line class="st5" x1="94.5" y1="90" x2="94.5" y2="99.7"/>
			<polygon class="st1" points="94.5,86.4 96.3,90.2 98,93.9 94.5,93.9 91.1,93.9 92.8,90.2 			"/>
		</g>
	</g>
</g>
</svg>
